<?xml version="1.0" encoding="UTF-8"?>
<svg id="Layer_1" data-name="Layer 1" xmlns="http://www.w3.org/2000/svg" viewBox="0 0 595.28 132.7">
  <defs>
    <style>
      .cls-1 {
        fill: #edeced;
        stroke-width: 0px;
      }
    </style>
  </defs>
  <path class="cls-1" d="M75.06,102.66H2.92C1.31,102.66,0,103.97,0,105.58v24.19C0,131.38,1.31,132.69,2.92,132.69h9.18c1.61,0,2.92-1.31,2.92-2.92v-12.1h60.05v12.1c0,1.61,1.31,2.92,2.92,2.92h9.18c1.61,0,2.92-1.31,2.92-2.92v-24.19c0-1.61-1.31-2.92-2.92-2.92h-12.1Z"/>
  <path class="cls-1" d="M49.17,1.7c-2.27-2.27-5.99-2.27-8.26,0L4.13,38.48C1.86,40.76,0,45.24,0,48.45v33.36C0,85.02,2.63,87.65,5.84,87.65h78.4c3.21,0,5.84-2.63,5.84-5.84v-33.36c0-3.21-1.86-7.7-4.13-9.97L49.17,1.7Z"/>
  <g>
    <path class="cls-1" d="M148.38,12.59c4.15,0,8,.75,11.54,2.25,3.54,1.5,6.54,3.57,9,6.21,2.46,2.64,4.38,5.81,5.75,9.52,1.37,3.71,2.06,7.71,2.06,12.02.05,4.26-.62,8.26-2,12-1.38,3.74-3.32,6.94-5.81,9.6-2.49,2.65-5.51,4.74-9.08,6.25-3.56,1.51-7.41,2.24-11.54,2.19-5.46.08-10.37-1.18-14.71-3.77-4.35-2.59-7.7-6.18-10.06-10.77-2.36-4.59-3.5-9.73-3.42-15.43-.05-4.26.62-8.26,2-12,1.39-3.74,3.31-6.95,5.79-9.62,2.47-2.67,5.49-4.76,9.04-6.27,3.55-1.51,7.37-2.24,11.44-2.19ZM148.45,61.13c4.9,0,8.78-1.66,11.64-4.98,2.86-3.32,4.29-7.84,4.29-13.56s-1.42-10.31-4.27-13.62c-2.85-3.31-6.73-4.96-11.66-4.96s-8.81,1.65-11.65,4.96c-2.85,3.31-4.27,7.85-4.27,13.62s1.42,10.3,4.27,13.6c2.85,3.3,6.73,4.94,11.65,4.94Z"/>
    <path class="cls-1" d="M228.31,32.82c0,5.82-1.76,10.51-5.27,14.06-3.51,3.55-8.3,5.33-14.35,5.33h-11.5v19.46h-11.73V13.63h23.39c6.08,0,10.84,1.71,14.29,5.14,3.45,3.42,5.17,8.11,5.17,14.06ZM215.92,32.59c0-2.46-.8-4.49-2.4-6.1-1.6-1.6-3.92-2.4-6.94-2.4h-9.39v17.89h9.39c3.05,0,5.37-.87,6.96-2.6,1.59-1.73,2.38-3.99,2.38-6.79Z"/>
    <path class="cls-1" d="M273.12,60.63v11.04h-36.54V13.63h36.54v11.15h-24.81v12.39h22.04v10.38h-22.04v13.08h24.81Z"/>
    <path class="cls-1" d="M334.05,13.63v58.04h-11.66l-25.43-39.31v39.31h-11.65V13.63h11.65l25.43,39.39V13.63h11.66Z"/>
    <path class="cls-1" d="M367.29,13.63h11.73v23.46l23,.08V13.63h11.81v58.04h-11.81v-24.04l-23-.15v24.19h-11.73V13.63Z"/>
    <path class="cls-1" d="M450.76,12.59c4.15,0,8,.75,11.54,2.25,3.54,1.5,6.54,3.57,9,6.21,2.46,2.64,4.38,5.81,5.75,9.52,1.37,3.71,2.06,7.71,2.06,12.02.05,4.26-.62,8.26-2,12-1.38,3.74-3.32,6.94-5.81,9.6-2.49,2.65-5.51,4.74-9.08,6.25-3.56,1.51-7.41,2.24-11.54,2.19-5.46.08-10.37-1.18-14.71-3.77-4.35-2.59-7.7-6.18-10.06-10.77s-3.5-9.73-3.42-15.43c-.05-4.26.62-8.26,2-12,1.39-3.74,3.31-6.95,5.79-9.62,2.47-2.67,5.49-4.76,9.04-6.27,3.55-1.51,7.37-2.24,11.44-2.19ZM450.84,61.13c4.9,0,8.78-1.66,11.64-4.98,2.86-3.32,4.29-7.84,4.29-13.56s-1.42-10.31-4.27-13.62c-2.85-3.31-6.73-4.96-11.66-4.96s-8.81,1.65-11.65,4.96c-2.85,3.31-4.27,7.85-4.27,13.62s1.42,10.3,4.27,13.6c2.85,3.3,6.73,4.94,11.65,4.94Z"/>
    <path class="cls-1" d="M546.42,13.63v58.04h-11.58v-31.73l-12.42,31.73h-11.12l-12.27-31.5v31.5h-11.19V13.63h11.19l17.85,44.35,17.96-44.35h11.58Z"/>
    <path class="cls-1" d="M595.28,60.63v11.04h-36.54V13.63h36.54v11.15h-24.81v12.39h22.04v10.38h-22.04v13.08h24.81Z"/>
  </g>
  <g>
    <path class="cls-1" d="M126.74,94.64v13.07h16.73v5.97h-16.73v18.22h-6.64v-43.55h26.53v6.29h-19.89Z"/>
    <path class="cls-1" d="M171.96,87.65c3.02-.04,5.85.51,8.48,1.64,2.63,1.13,4.87,2.7,6.71,4.69,1.84,2,3.29,4.39,4.33,7.18,1.04,2.79,1.54,5.77,1.51,8.95.04,3.2-.46,6.2-1.51,9.01-1.04,2.81-2.49,5.21-4.33,7.2-1.84,1.99-4.08,3.55-6.71,4.68-2.63,1.13-5.46,1.68-8.48,1.64-3.02.04-5.85-.51-8.47-1.64-2.62-1.13-4.86-2.7-6.7-4.69-1.84-2-3.28-4.39-4.31-7.18-1.03-2.79-1.53-5.77-1.49-8.95-.04-3.18.46-6.17,1.49-8.96,1.03-2.8,2.47-5.2,4.31-7.2,1.84-2,4.08-3.57,6.7-4.71,2.62-1.14,5.44-1.69,8.47-1.65ZM161.83,121.71c2.56,2.92,5.96,4.37,10.19,4.37s7.62-1.46,10.18-4.37c2.55-2.92,3.83-6.78,3.83-11.6s-1.28-8.71-3.83-11.63c-2.55-2.92-5.95-4.37-10.18-4.37s-7.63,1.46-10.19,4.39c-2.56,2.93-3.85,6.8-3.85,11.61s1.28,8.68,3.85,11.6Z"/>
    <path class="cls-1" d="M199.98,88.35h6.64v27.85c.02,3.32.99,5.82,2.92,7.52,1.93,1.7,4.47,2.54,7.61,2.54s5.54-.89,7.55-2.68c2.01-1.78,3.01-4.25,3.01-7.39v-27.85h6.64v28.11c0,2.55-.46,4.87-1.37,6.95-.92,2.08-2.16,3.78-3.73,5.12-1.57,1.34-3.39,2.37-5.45,3.09-2.07.72-4.28,1.08-6.64,1.08s-4.48-.35-6.52-1.05c-2.05-.7-3.87-1.71-5.47-3.03-1.6-1.32-2.86-3.02-3.79-5.12-.93-2.1-1.39-4.44-1.39-7.03v-28.11Z"/>
    <path class="cls-1" d="M278.72,88.35v43.55h-6.64l-21.47-32.82v32.82h-6.64v-43.55h6.64l21.47,32.88v-32.88h6.64Z"/>
    <path class="cls-1" d="M325.11,110.17c.02,3.12-.52,6.05-1.62,8.77-1.1,2.73-2.62,5.05-4.56,6.96-1.94,1.91-4.27,3.4-6.99,4.47-2.72,1.07-5.63,1.58-8.73,1.52h-14.51v-43.55h14.51c4.09-.06,7.82.85,11.19,2.72,3.36,1.87,6,4.49,7.91,7.84,1.91,3.35,2.85,7.11,2.81,11.26ZM318.06,110.17c0-4.6-1.37-8.34-4.11-11.22-2.74-2.88-6.34-4.31-10.81-4.31h-7.75v31.09h7.75c4.5,0,8.12-1.43,10.84-4.29,2.72-2.86,4.08-6.61,4.08-11.28Z"/>
    <path class="cls-1" d="M354.27,121.44h-17.37l-3.77,10.47h-6.81l15.74-43.55h7.14l15.82,43.55h-7.02l-3.71-10.47ZM352.34,115.79l-6.7-18.98-6.76,18.98h13.45Z"/>
    <path class="cls-1" d="M394.81,94.64h-12.64v37.26h-6.7v-37.26h-12.64v-6.29h31.97v6.29Z"/>
    <path class="cls-1" d="M400.81,131.91v-43.55h6.7v43.55h-6.7Z"/>
    <path class="cls-1" d="M435.85,87.65c3.02-.04,5.85.51,8.48,1.64,2.63,1.13,4.87,2.7,6.71,4.69,1.84,2,3.29,4.39,4.33,7.18,1.04,2.79,1.54,5.77,1.51,8.95.04,3.2-.46,6.2-1.51,9.01-1.04,2.81-2.49,5.21-4.33,7.2-1.84,1.99-4.08,3.55-6.71,4.68-2.63,1.13-5.46,1.68-8.48,1.64-3.02.04-5.85-.51-8.47-1.64-2.62-1.13-4.86-2.7-6.7-4.69-1.84-2-3.28-4.39-4.31-7.18-1.03-2.79-1.53-5.77-1.49-8.95-.04-3.18.46-6.17,1.49-8.96,1.03-2.8,2.47-5.2,4.31-7.2,1.84-2,4.08-3.57,6.7-4.71,2.62-1.14,5.44-1.69,8.47-1.65ZM425.71,121.71c2.56,2.92,5.96,4.37,10.19,4.37s7.62-1.46,10.18-4.37c2.55-2.92,3.83-6.78,3.83-11.6s-1.28-8.71-3.83-11.63c-2.55-2.92-5.95-4.37-10.18-4.37s-7.63,1.46-10.19,4.39c-2.56,2.93-3.85,6.8-3.85,11.61s1.28,8.68,3.85,11.6Z"/>
    <path class="cls-1" d="M499.02,88.35v43.55h-6.64l-21.47-32.82v32.82h-6.64v-43.55h6.64l21.47,32.88v-32.88h6.64Z"/>
  </g>
</svg>