<?xml version="1.0" encoding="UTF-8"?>
<svg id="Layer_1" data-name="Layer 1" xmlns="http://www.w3.org/2000/svg" viewBox="0 0 120 116.88">
  <defs>
    <style>
      .cls-1 {
        fill: #f2f4f9;
      }

      .cls-2 {
        fill: #18bcf2;
      }
    </style>
  </defs>
  <path class="cls-2" d="M120,109.38c0,4.12-3.38,7.5-7.5,7.5H7.5c-4.12,0-7.5-3.38-7.5-7.5v-45c0-4.12,2.39-9.89,5.3-12.8L54.7,2.19c2.92-2.92,7.69-2.92,10.61,0l49.39,49.39c2.92,2.92,5.3,8.68,5.3,12.8v45Z"/>
  <path class="cls-1" d="M80,80.88c0,11.05-8.95,20-20,20s-20-8.95-20-20h40Z"/>
  <g>
    <path class="cls-1" d="M29,56.23c-3.12-3.12-8.19-3.12-11.31,0-3.12,3.12-3.12,8.19,0,11.31.06.06.12.1.17.16h0s11.15,11.16,11.15,11.16l11.15-11.15h0c.06-.06.12-.11.17-.16,3.12-3.12,3.12-8.19,0-11.31-3.12-3.12-8.19-3.12-11.31,0Z"/>
    <path class="cls-1" d="M91,56.23c3.12-3.12,8.19-3.12,11.31,0,3.12,3.12,3.12,8.19,0,11.31-.06.06-.12.1-.17.16h0s-11.15,11.16-11.15,11.16l-11.15-11.15h0c-.06-.06-.12-.11-.17-.16-3.12-3.12-3.12-8.19,0-11.31,3.12-3.12,8.19-3.12,11.31,0Z"/>
  </g>
</svg>