<?xml version="1.0" encoding="UTF-8"?>
<svg id="Layer_1" data-name="Layer 1" xmlns="http://www.w3.org/2000/svg" viewBox="0 0 120 116.88">
  <defs>
    <style>
      .cls-1 {
        fill: none;
        stroke: #f2f4f9;
        stroke-miterlimit: 10;
        stroke-width: 6px;
      }

      .cls-2 {
        fill: #f2f4f9;
      }

      .cls-3 {
        fill: #f7931e;
      }
    </style>
  </defs>
  <path class="cls-3" d="M120,109.38c0,4.12-3.38,7.5-7.5,7.5H7.5c-4.12,0-7.5-3.38-7.5-7.5v-45c0-4.12,2.39-9.89,5.3-12.8L54.7,2.19c2.92-2.92,7.69-2.92,10.61,0l49.39,49.39c2.92,2.92,5.3,8.68,5.3,12.8v45Z"/>
  <circle class="cls-2" cx="33" cy="65.88" r="8"/>
  <circle class="cls-2" cx="87" cy="65.88" r="8"/>
  <path class="cls-1" d="M44,96.88c0-8.84,7.16-16,16-16s16,7.16,16,16"/>
  <path class="cls-3" d="M111.91,12.57c0,2.03-.66,3.7-1.99,5.03-.69.69-1.37,1.31-2.05,1.87-.85.69-1.46,1.25-1.81,1.68s-.56.9-.62,1.4v.69h-4.52v-.91c.02-.48.09-.93.22-1.35s.27-.78.44-1.09.42-.64.74-1,.63-.66.92-.92.68-.6,1.19-1.02c.73-.6,1.29-1.09,1.67-1.47s.68-.8.91-1.23.34-.9.34-1.4c0-.86-.3-1.59-.89-2.18s-1.37-.89-2.34-.89c-1.04,0-1.9.33-2.58,1s-1.03,1.48-1.03,2.45h-4.58c0-2.25.78-4.14,2.34-5.67s3.5-2.29,5.82-2.29c1.44,0,2.75.29,3.93.88s2.13,1.44,2.84,2.56c.71,1.12,1.06,2.41,1.06,3.86ZM106.06,26.89c0,.71-.25,1.3-.76,1.78s-1.16.72-1.95.72-1.4-.24-1.91-.73-.77-1.07-.77-1.77.26-1.3.77-1.79,1.15-.74,1.91-.74,1.4.25,1.93.74.79,1.09.79,1.79Z"/>
</svg>