<?xml version="1.0" encoding="UTF-8"?>
<svg id="Layer_1" data-name="Layer 1" xmlns="http://www.w3.org/2000/svg" viewBox="0 0 120 116.88">
  <defs>
    <style>
      .cls-1 {
        fill: #f2f4f9;
      }

      .cls-2 {
        fill: #18bcf2;
      }
    </style>
  </defs>
  <path class="cls-2" d="M120,109.38c0,4.12-3.38,7.5-7.5,7.5H7.5c-4.12,0-7.5-3.38-7.5-7.5v-45c0-4.12,2.39-9.89,5.3-12.8L54.7,2.19c2.92-2.92,7.69-2.92,10.61,0l49.39,49.39c2.92,2.92,5.3,8.68,5.3,12.8v45Z"/>
  <path class="cls-1" d="M80,80.88c0,11.05-8.95,20-20,20s-20-8.95-20-20h40Z"/>
  <circle class="cls-1" cx="33" cy="65.88" r="8"/>
  <path class="cls-1" d="M79,65.88c0,4.42,3.58,8,8,8s8-3.58,8-8h-16Z"/>
</svg>